<svg id="svg" version="1.1" xmlns="http://www.w3.org/2000/svg" xmlns:xlink="http://www.w3.org/1999/xlink" width="400" height="925.5886970172685" viewBox="0, 0, 400,925.5886970172685"><g id="svgg"><path id="path1" d="M48.400 1.848 C 30.376 4.010,20.477 10.889,11.924 27.200 C 7.576 35.492,5.779 41.566,3.937 54.200 C 1.187 73.052,5.373 101.086,13.028 115.093 C 18.859 125.761,22.424 129.074,33.400 134.031 C 37.920 136.072,47.489 139.106,54.000 140.562 C 71.354 144.442,87.591 142.326,98.955 134.703 C 114.745 124.110,120.007 110.150,119.997 78.880 C 119.985 41.643,110.633 16.477,92.988 6.202 C 85.480 1.829,65.133 -0.158,48.400 1.848 M178.600 42.658 C 166.362 45.559,152.655 60.330,146.732 77.000 C 138.962 98.868,160.095 126.906,184.400 126.975 C 199.557 127.018,209.165 118.824,215.279 100.641 C 225.229 71.049,203.530 36.747,178.600 42.658 M254.536 61.603 C 238.681 63.797,228.505 81.893,233.056 99.800 C 243.002 138.932,276.461 139.056,286.927 100.000 C 292.915 77.654,276.778 58.524,254.536 61.603 M320.000 84.796 C 306.426 86.589,299.071 98.237,299.699 116.948 C 300.240 133.074,306.109 139.630,319.973 139.593 C 333.983 139.556,349.849 125.720,349.774 113.605 C 349.660 95.356,336.494 82.616,320.000 84.796 M368.200 126.224 C 360.080 127.723,355.655 130.338,353.496 134.914 C 348.164 146.212,349.377 161.829,356.109 168.561 C 368.538 180.990,394.713 168.923,396.977 149.721 C 397.556 144.808,393.703 132.058,390.684 128.899 C 387.819 125.901,376.955 124.608,368.200 126.224 M159.400 163.877 C 154.303 164.061,139.864 165.246,133.600 165.994 C 98.569 170.178,90.469 172.249,72.000 181.743 C 62.750 186.499,58.887 189.144,53.255 194.583 C 29.066 217.942,14.424 265.805,19.415 305.200 C 21.162 318.990,25.693 333.402,30.618 340.838 C 36.402 349.570,66.316 374.680,94.200 394.209 C 95.740 395.287,97.810 396.818,98.800 397.610 C 99.790 398.402,101.950 400.115,103.600 401.417 C 127.666 420.408,156.143 452.276,166.674 472.001 C 171.421 480.891,178.418 503.115,181.788 520.000 C 182.073 521.430,182.672 524.400,183.119 526.600 C 183.566 528.800,184.223 532.400,184.578 534.600 C 184.934 536.800,185.395 539.500,185.603 540.600 C 185.811 541.700,186.158 544.040,186.374 545.800 C 186.590 547.560,187.122 551.880,187.557 555.400 C 190.847 582.030,191.378 618.903,188.778 640.200 C 187.735 648.738,186.508 656.635,185.608 660.600 C 185.408 661.480,184.949 663.550,184.587 665.200 C 183.284 671.147,180.406 680.071,178.177 685.074 C 177.607 686.353,176.907 687.940,176.623 688.600 C 176.071 689.879,173.158 697.632,170.386 705.200 C 169.459 707.730,168.462 710.340,168.170 711.000 C 167.879 711.660,166.445 715.170,164.985 718.800 C 162.756 724.342,155.983 740.698,154.799 743.400 C 153.715 745.874,150.251 754.350,149.977 755.200 C 149.799 755.750,149.083 757.730,148.387 759.600 C 130.351 807.994,131.311 841.429,151.691 874.721 C 160.362 888.886,165.762 894.113,181.600 903.670 C 196.992 912.958,209.696 919.059,220.600 922.398 C 228.645 924.861,240.576 924.843,249.400 922.354 C 258.233 919.862,265.989 916.696,280.163 909.795 C 285.731 907.085,292.524 903.381,297.400 900.397 C 310.927 892.120,321.580 882.374,328.720 871.744 C 342.455 851.297,346.862 815.888,341.186 771.600 C 339.460 758.128,336.935 741.197,335.609 734.200 C 335.065 731.333,334.133 725.328,333.405 720.000 C 333.059 717.470,332.602 714.140,332.390 712.600 C 332.018 709.901,331.668 706.551,330.822 697.600 C 330.604 695.290,330.241 691.510,330.015 689.200 C 329.635 685.298,329.213 679.846,327.912 662.000 C 327.207 652.337,327.213 609.151,327.921 601.000 C 329.134 587.010,330.301 576.344,331.179 571.200 C 331.386 569.990,331.845 567.290,332.200 565.200 C 334.608 551.024,337.942 538.667,343.801 522.200 C 346.154 515.589,352.932 495.238,355.393 487.400 C 358.740 476.736,360.442 471.459,361.457 468.600 C 363.635 462.461,365.749 456.889,366.691 454.800 C 369.495 448.586,373.912 436.262,376.153 428.400 C 376.498 427.190,377.227 424.670,377.774 422.800 C 378.321 420.930,378.940 418.680,379.148 417.800 C 379.357 416.920,380.181 413.590,380.980 410.400 C 383.168 401.660,383.910 398.461,385.200 392.200 C 385.472 390.880,385.931 388.720,386.220 387.400 C 386.508 386.080,387.035 383.380,387.390 381.400 C 387.746 379.420,388.198 376.990,388.395 376.000 C 389.297 371.478,390.858 359.909,391.580 352.400 C 394.094 326.246,389.110 280.589,381.733 262.200 C 375.139 245.763,367.073 235.372,348.487 219.373 C 327.424 201.241,313.322 194.004,283.000 185.767 C 281.020 185.229,278.230 184.530,276.800 184.214 C 275.370 183.898,269.160 182.358,263.000 180.792 C 250.925 177.721,250.965 177.731,246.200 176.400 C 244.440 175.908,242.460 175.363,241.800 175.187 C 238.597 174.335,234.187 173.025,230.200 171.743 C 224.565 169.931,216.453 167.871,211.600 167.021 C 209.510 166.655,206.810 166.183,205.600 165.973 C 194.860 164.110,176.273 163.267,159.400 163.877 " stroke="none" fill="#ff0000" fill-rule="evenodd"></path></g></svg>